<?xml version="1.0" standalone="no"?>
<!DOCTYPE svg PUBLIC "-//W3C//DTD SVG 20010904//EN"
 "http://www.w3.org/TR/2001/REC-SVG-20010904/DTD/svg10.dtd">
<svg version="1.0" xmlns="http://www.w3.org/2000/svg"
 width="500.000000pt" height="500.000000pt" viewBox="0 0 500.000000 500.000000"
 preserveAspectRatio="xMidYMid meet">

<g transform="translate(0.000000,500.000000) scale(0.100000,-0.100000)"
fill="#000000" stroke="none">
<path d="M2795 4116 c-40 -17 -107 -94 -136 -154 -12 -26 -34 -84 -49 -130
-15 -45 -30 -85 -33 -89 -13 -12 -452 -73 -455 -62 -10 26 -118 169 -157 205
-146 136 -299 100 -386 -91 -52 -116 -98 -351 -99 -506 0 -39 -8 -89 -19 -122
-38 -110 -45 -204 -26 -340 30 -217 79 -321 215 -457 87 -88 189 -151 288
-181 l42 -12 0 -66 c0 -109 34 -245 86 -350 104 -211 283 -321 519 -321 315 1
548 175 610 456 22 95 16 286 -10 388 l-18 70 34 25 c62 46 174 165 208 224
84 142 115 312 91 489 -20 152 -62 266 -134 368 -18 25 -47 86 -65 135 -42
112 -121 271 -174 350 -104 153 -228 217 -332 171z m149 -170 c25 -25 61 -69
79 -98 33 -51 87 -152 87 -162 0 -13 -87 36 -99 56 -45 72 -67 101 -90 112
-39 20 -69 4 -92 -49 -19 -42 -22 -45 -59 -45 l-39 0 18 53 c38 110 86 177
127 177 13 0 42 -19 68 -44z m-1101 -142 c35 -23 127 -135 127 -154 0 -4 -12
-11 -26 -14 -22 -6 -32 -1 -55 27 -31 38 -54 48 -85 36 -23 -8 -59 -76 -69
-131 -5 -25 -19 -46 -51 -72 l-44 -37 0 29 c0 36 37 184 60 237 22 52 67 105
89 105 9 0 33 -12 54 -26z m1037 -195 c218 -35 406 -214 465 -444 23 -87 26
-268 6 -340 -54 -196 -231 -371 -416 -414 -106 -24 -721 -111 -789 -111 -142
0 -274 54 -384 156 -112 103 -161 206 -188 389 -14 92 -14 113 0 191 36 209
189 392 383 455 30 10 207 41 392 68 185 28 347 52 361 54 48 8 105 7 170 -4z
m174 -1388 c18 -79 21 -234 5 -300 -38 -167 -179 -299 -354 -332 -33 -6 -101
-9 -151 -7 -81 3 -100 8 -167 41 -92 45 -153 110 -202 211 -37 78 -65 197 -65
276 l0 50 57 0 c32 0 122 10 201 21 78 12 145 20 147 17 2 -2 7 -29 11 -60 6
-55 6 -57 -29 -87 -45 -40 -67 -87 -67 -144 0 -114 77 -190 192 -190 168 0
248 203 128 323 -22 22 -54 43 -72 48 -31 8 -33 12 -41 66 -5 32 -6 61 -3 64
3 2 74 15 158 28 84 13 167 28 183 33 50 16 53 14 69 -58z m-333 -217 c63 -60
59 -148 -9 -203 -111 -92 -265 27 -209 162 36 84 150 106 218 41z"/>
<path d="M2395 3400 c-275 -42 -324 -56 -404 -108 -101 -67 -181 -213 -181
-331 0 -140 41 -259 116 -341 88 -94 188 -140 306 -140 80 0 517 66 599 90
123 37 224 135 269 262 36 104 22 276 -32 382 -54 105 -174 193 -298 216 -74
14 -94 12 -375 -30z m482 -288 c35 -25 85 -115 76 -138 -3 -8 -16 -14 -28 -14
-18 0 -26 8 -35 35 -32 96 -155 116 -202 32 -7 -12 -15 -47 -18 -77 -5 -51 -7
-55 -30 -55 -22 0 -25 5 -28 45 -2 25 1 61 7 80 11 38 62 96 96 111 36 16 129
5 162 -19z m-639 -76 c76 -40 144 -174 97 -192 -21 -8 -42 12 -50 47 -10 46
-66 99 -104 99 -67 0 -121 -52 -121 -118 0 -33 -22 -57 -45 -48 -37 14 -7 133
47 183 46 43 124 56 176 29z"/>
<path d="M2342 1068 c-28 -73 -54 -141 -58 -150 -5 -16 0 -18 39 -18 36 0 46
4 50 20 4 17 14 20 60 20 47 0 57 -3 62 -20 5 -16 15 -20 52 -20 39 0 44 2 39
18 -4 9 -30 77 -58 150 l-51 132 -42 0 -42 0 -51 -132z m119 -61 c-5 -5 -19
-7 -32 -5 -26 3 -27 17 -7 67 l10 26 19 -40 c10 -22 14 -44 10 -48z"/>
<path d="M2630 1050 l0 -150 105 0 105 0 0 40 0 40 -65 0 -65 0 0 110 0 110
-40 0 -40 0 0 -150z"/>
<path d="M2880 1050 l0 -150 40 0 40 0 0 150 0 150 -40 0 -40 0 0 -150z"/>
</g>
</svg>
